<svg  xmlns="http://www.w3.org/2000/svg" xmlns:xlink="http://www.w3.org/1999/xlink">
    <symbol id="insta" viewBox="0 0 21 21">
        <path d="M10.0078 4.87388C7.16852 4.87388 4.87834 7.16406 4.87834 10.0033C4.87834 12.8426 7.16852 15.1328 10.0078 15.1328C12.8471 15.1328 15.1373 12.8426 15.1373 10.0033C15.1373 7.16406 12.8471 4.87388 10.0078 4.87388ZM10.0078 13.3382C8.17298 13.3382 6.67298 11.8426 6.67298 10.0033C6.67298 8.16406 8.16851 6.66853 10.0078 6.66853C11.8471 6.66853 13.3426 8.16406 13.3426 10.0033C13.3426 11.8426 11.8426 13.3382 10.0078 13.3382ZM16.5435 4.66406C16.5435 5.32924 16.0078 5.86049 15.3471 5.86049C14.6819 5.86049 14.1506 5.32478 14.1506 4.66406C14.1506 4.00335 14.6864 3.46763 15.3471 3.46763C16.0078 3.46763 16.5435 4.00335 16.5435 4.66406ZM19.9408 5.87835C19.8649 4.27567 19.4989 2.85603 18.3247 1.68638C17.1551 0.516741 15.7355 0.15067 14.1328 0.0703125C12.481 -0.0234375 7.53012 -0.0234375 5.87834 0.0703125C4.28013 0.146205 2.86049 0.512277 1.68638 1.68192C0.512276 2.85156 0.150669 4.27121 0.0703124 5.87388C-0.0234375 7.52567 -0.0234375 12.4766 0.0703124 14.1283C0.146205 15.731 0.512276 17.1507 1.68638 18.3203C2.86049 19.49 4.27566 19.856 5.87834 19.9364C7.53012 20.0301 12.481 20.0301 14.1328 19.9364C15.7355 19.8605 17.1551 19.4944 18.3247 18.3203C19.4944 17.1507 19.8605 15.731 19.9408 14.1283C20.0346 12.4766 20.0346 7.53013 19.9408 5.87835ZM17.8069 15.9007C17.4587 16.7757 16.7846 17.4498 15.9051 17.8025C14.5881 18.3248 11.4632 18.2042 10.0078 18.2042C8.55244 18.2042 5.42298 18.3203 4.11048 17.8025C3.23549 17.4542 2.56138 16.7801 2.2087 15.9007C1.68638 14.5837 1.80692 11.4587 1.80692 10.0033C1.80692 8.54799 1.69085 5.41853 2.2087 4.10603C2.55692 3.23103 3.23102 2.55692 4.11048 2.20424C5.42745 1.68192 8.55244 1.80246 10.0078 1.80246C11.4632 1.80246 14.5926 1.68638 15.9051 2.20424C16.7801 2.55246 17.4542 3.22656 17.8069 4.10603C18.3292 5.42299 18.2087 8.54799 18.2087 10.0033C18.2087 11.4587 18.3292 14.5882 17.8069 15.9007Z"/>
    </symbol>
    <symbol id="behance" viewBox="0 0 18 18">
        <path fill-rule="evenodd" clip-rule="evenodd" d="M3 2C2.44772 2 2 2.44772 2 3V15C2 15.5523 2.44772 16 3 16H15C15.5523 16 16 15.5523 16 15V3C16 2.44772 15.5523 2 15 2H3ZM0 3C0 1.34315 1.34315 0 3 0H15C16.6569 0 18 1.34315 18 3V15C18 16.6569 16.6569 18 15 18H3C1.34315 18 0 16.6569 0 15V3ZM5 4C5.55228 4 6 4.44772 6 5V5.01C6 5.56228 5.55228 6.01 5 6.01C4.44772 6.01 4 5.56228 4 5.01V5C4 4.44772 4.44772 4 5 4ZM5 7C5.55228 7 6 7.44772 6 8V13C6 13.5523 5.55228 14 5 14C4.44772 14 4 13.5523 4 13V8C4 7.44772 4.44772 7 5 7ZM8 13C8 13.5523 8.44772 14 9 14C9.55229 14 10 13.5523 10 13V10C10 9.73478 10.1054 9.48043 10.2929 9.29289C10.4804 9.10536 10.7348 9 11 9C11.2652 9 11.5196 9.10536 11.7071 9.29289C11.8946 9.48043 12 9.73478 12 10V13C12 13.5523 12.4477 14 13 14C13.5523 14 14 13.5523 14 13V10C14 9.20435 13.6839 8.44129 13.1213 7.87868C12.5587 7.31607 11.7957 7 11 7C10.5483 7 10.1071 7.10187 9.70711 7.29289C9.52614 7.11193 9.27614 7 9 7C8.44772 7 8 7.44772 8 8V13Z"/>
    </symbol>
    <symbol id="twitter" viewBox="0 0 16 14">
        <path d="M14.3438 3.75C14.3646 3.83333 14.375 3.96875 14.375 4.15625C14.375 5.26042 14.1667 6.36458 13.75 7.46875C13.3333 8.55208 12.7396 9.55208 11.9688 10.4688C11.2188 11.3646 10.2396 12.0938 9.03125 12.6562C7.82292 13.2188 6.48958 13.5 5.03125 13.5C3.19792 13.5 1.52083 13.0104 0 12.0312C0.229167 12.0521 0.489583 12.0625 0.78125 12.0625C2.30208 12.0625 3.66667 11.5938 4.875 10.6562C4.14583 10.6562 3.5 10.4479 2.9375 10.0312C2.39583 9.59375 2.02083 9.05208 1.8125 8.40625C2.02083 8.42708 2.21875 8.4375 2.40625 8.4375C2.69792 8.4375 2.98958 8.40625 3.28125 8.34375C2.78125 8.23958 2.33333 8.03125 1.9375 7.71875C1.54167 7.40625 1.22917 7.03125 1 6.59375C0.770833 6.13542 0.65625 5.64583 0.65625 5.125V5.0625C1.11458 5.33333 1.60417 5.47917 2.125 5.5C1.14583 4.83333 0.65625 3.91667 0.65625 2.75C0.65625 2.16667 0.8125 1.61458 1.125 1.09375C1.9375 2.11458 2.92708 2.92708 4.09375 3.53125C5.28125 4.13542 6.54167 4.46875 7.875 4.53125C7.83333 4.28125 7.8125 4.03125 7.8125 3.78125C7.8125 2.88542 8.125 2.11458 8.75 1.46875C9.39583 0.822917 10.1667 0.5 11.0625 0.5C12.0208 0.5 12.8229 0.84375 13.4688 1.53125C14.2188 1.38542 14.9167 1.125 15.5625 0.75C15.3125 1.52083 14.8333 2.125 14.125 2.5625C14.75 2.47917 15.375 2.30208 16 2.03125C15.5417 2.69792 14.9896 3.27083 14.3438 3.75Z"/>
    </symbol>
    <symbol id="google" viewBox="0 0 20 12">
        <path d="M11.6644 5.1405C11.7217 5.44338 11.7626 5.74625 11.7626 6.13912C11.7626 9.56891 9.46247 12 6 12C2.68487 12 0 9.31516 0 6C0 2.68484 2.68487 0 6 0C7.62075 0 8.97134 0.589344 10.0191 1.57162L8.39016 3.13506C7.94812 2.70941 7.17053 2.21009 6 2.21009C3.95362 2.21009 2.28375 3.9045 2.28375 6C2.28375 8.0955 3.95362 9.78991 6 9.78991C8.37378 9.78991 9.26603 8.07912 9.40516 7.20325H6V5.14047H11.6644V5.1405ZM17.4583 5.34166V3.6H15.7083V5.34166H13.9667V7.09169H15.7083V8.83334H17.4583V7.09169H19.2V5.34166H17.4583V5.34166Z"/>
    </symbol>
</svg> 